<?xml version="1.0" encoding="utf-8"?>
<!-- Generator: Adobe Illustrator 16.0.0, SVG Export Plug-In . SVG Version: 6.00 Build 0)  -->
<!DOCTYPE svg PUBLIC "-//W3C//DTD SVG 1.1//EN" "http://www.w3.org/Graphics/SVG/1.1/DTD/svg11.dtd">
<svg version="1.1" id="Layer_1" xmlns="http://www.w3.org/2000/svg" xmlns:xlink="http://www.w3.org/1999/xlink" x="0px" y="0px"
	 width="60px" height="60px" viewBox="0 0 60 60" enable-background="new 0 0 60 60" xml:space="preserve">
<g id="icomoon-ignore">
	<line fill="#FFFFFF" stroke="#449FDB" x1="0" y1="0" x2="0" y2="0"/>
</g>
<path fill="#FFFFFF" d="M54.229,60H41c-0.55,0-1-0.45-1-1V37c0-0.55,0.45-1,1-1h7.492l1.876-6H41c-0.55,0-1-0.448-1-1v-8.626
	c0-2.74,2.982-4.376,7.979-4.376H50v-6h-4.521c-5.227,0-9.479,3.812-9.479,8.5v10.5c0,0.552-0.45,1-1,1h-9v6h9c0.55,0,1,0.447,1,1
	v22c0,0.552-0.45,1-1,1H6.728c-3.332,0-6.728-3.28-6.728-6.5V6c0-3.434,3.552-6,6.728-6h47.5C57.464,0,60,2.636,60,6v47.5
	C60,56.636,57.68,60,54.229,60z M42,58h12.229C56.454,58,58,55.628,58,53.5V6c0-2.28-1.622-4-3.771-4h-47.5C4.586,2,2,3.784,2,6
	v47.5C2,55.645,4.474,58,6.728,58H34V38h-9c-0.552,0-1-0.45-1-1v-8c0-0.552,0.448-1,1-1h9v-9.5C34,12.71,39.148,8,45.479,8H51
	c0.55,0,1,0.448,1,1v8c0,0.552-0.45,1-1,1h-3.021C45.218,18,42,18.622,42,20.376v7.626h9.729c0.317,0,0.617,0.152,0.807,0.408
	c0.188,0.254,0.24,0.586,0.146,0.89l-2.5,8c-0.131,0.414-0.517,0.702-0.955,0.702H42V58z"/>
</svg>
